<?xml version="1.0" encoding="UTF-8"?>
<svg version="1.1" xmlns="http://www.w3.org/2000/svg" width="512" height="512">
<path d="M0 0 C0.88693039 -0.0065712 1.77386078 -0.0131424 2.68766785 -0.01991272 C5.61730038 -0.03958901 8.54688166 -0.05129848 11.4765625 -0.0612793 C12.48177948 -0.06535482 13.48699646 -0.06943035 14.52267456 -0.07362938 C19.84795931 -0.09447046 25.17321848 -0.10877816 30.49853516 -0.11816406 C35.97115242 -0.12919736 41.44335962 -0.16356746 46.91583252 -0.20333576 C51.14720358 -0.2296161 55.37847884 -0.23786621 59.60992432 -0.24144554 C61.62553665 -0.24628553 63.64114546 -0.25782468 65.65667725 -0.27648354 C79.57050835 -0.3972396 93.02074492 -0.47933192 104.13793945 9.17993164 C112.67109312 17.85843432 116.37732908 28.63616206 120.5390625 39.80200195 C121.18036838 41.49128757 121.82293727 43.18009427 122.46679688 44.8684082 C124.02632474 48.96590063 125.56865331 53.0694811 127.1015625 57.17700195 C128.71224609 57.23307617 128.71224609 57.23307617 130.35546875 57.2902832 C131.7916987 57.35599307 133.22789512 57.42243863 134.6640625 57.48950195 C135.36853516 57.51206055 136.07300781 57.53461914 136.79882812 57.55786133 C142.54004724 57.84889087 147.87744011 58.80460474 151.9765625 63.17700195 C154.29189979 67.29315714 154.2066425 70.72328156 154.1640625 75.36450195 C154.15503906 76.63680664 154.14601563 77.90911133 154.13671875 79.2199707 C154.11931641 80.68370117 154.11931641 80.68370117 154.1015625 82.17700195 C154.7229435 82.17331478 155.34432449 82.16962761 155.98453522 82.1658287 C171.12549913 82.07737342 186.26638341 82.01124183 201.40753937 81.96975327 C208.7297953 81.94915481 216.05187844 81.92108658 223.37402344 81.87524414 C229.75829485 81.83529269 236.14244106 81.80954939 242.52683401 81.80064797 C245.90532021 81.79544716 249.28344836 81.7832811 252.66181946 81.75408173 C256.43947503 81.72500795 260.21639101 81.72104782 263.99414062 81.72290039 C265.10616852 81.70851929 266.21819641 81.69413818 267.36392212 81.67932129 C275.41525772 81.72199166 280.68038541 83.30010303 286.8515625 88.48950195 C292.01027658 94.65129932 293.7004575 99.03784556 293.61914062 106.92285156 C293.62965454 108.19258064 293.62965454 108.19258064 293.64038086 109.48796082 C293.65789593 112.26876238 293.64636034 115.0485349 293.6328125 117.8293457 C293.63550953 119.77315973 293.63939371 121.71697243 293.64440918 123.66078186 C293.65029566 127.72841273 293.6417696 131.79569143 293.62304688 135.86328125 C293.60027315 141.06290998 293.61337591 146.26171204 293.63733673 151.46131039 C293.65183067 155.47378197 293.64717198 159.48605945 293.63682556 163.49853706 C293.63416742 165.41498476 293.63739574 167.33145038 293.64674377 169.24787712 C293.65696708 171.93297474 293.64132768 174.61675746 293.61914062 177.30175781 C293.62723755 178.08486328 293.63533447 178.86796875 293.64367676 179.67480469 C293.53546027 186.7872849 291.13630897 191.85157741 286.4765625 197.17700195 C284.1015625 199.17700195 284.1015625 199.17700195 282.1015625 199.17700195 C282.10524967 200.265529 282.10893684 201.35405605 282.11273575 202.47556877 C282.20157667 228.97505793 282.26728582 255.47452776 282.30881119 281.97413445 C282.32942686 294.78920666 282.35752862 307.60418043 282.40332031 320.41918945 C282.44321832 331.5901595 282.46900254 342.76105824 282.47791648 353.93209755 C282.48312615 359.84581145 282.49535042 365.75932136 282.52448273 371.67296982 C282.55169843 377.24286151 282.55999495 382.81246581 282.55399323 388.38241768 C282.5550907 390.42295584 282.56300767 392.46350393 282.5783844 394.50398445 C282.73294234 416.07786148 282.73294234 416.07786148 276.27734375 424.5793457 C275.35501953 425.33924805 275.35501953 425.33924805 274.4140625 426.11450195 C273.51107422 426.90147461 273.51107422 426.90147461 272.58984375 427.7043457 C263.28017131 433.21415184 253.50338959 432.60035458 243.07202148 432.55795288 C241.22275485 432.56141164 239.37349028 432.56617767 237.52423 432.57213461 C232.45397828 432.58464424 227.38389622 432.57847434 222.31364393 432.56917596 C216.84117458 432.56238569 211.36873432 432.5728666 205.89627075 432.58111572 C195.18020494 432.59445546 184.46420218 432.59157422 173.7481339 432.5828778 C165.03894232 432.57610262 156.32976841 432.57518382 147.62057495 432.57844925 C146.38103103 432.57890895 145.14148711 432.57936865 143.86438125 432.57984228 C141.34627064 432.58080145 138.82816002 432.58177409 136.31004941 432.58276005 C113.37090868 432.59107079 90.43179549 432.58245227 67.49266122 432.56673226 C46.55921668 432.55249581 25.62582688 432.55376971 4.69238281 432.56811523 C-18.83538765 432.5841848 -42.36313401 432.59049067 -65.89091015 432.58127844 C-68.39975674 432.5803228 -70.90860335 432.57937968 -73.41744995 432.57844925 C-75.2690501 432.57775501 -75.2690501 432.57775501 -77.15805632 432.57704674 C-85.85677199 432.57445649 -94.55546824 432.57882863 -103.25418091 432.58588791 C-113.85501548 432.59430171 -124.45578341 432.59202523 -135.05661035 432.57604568 C-140.46528685 432.56816141 -145.87385224 432.56507412 -151.28252792 432.57499313 C-156.23444928 432.58393716 -161.18615659 432.57901184 -166.13805854 432.56306048 C-167.92864898 432.55971146 -169.71925754 432.56140945 -171.50983632 432.56868784 C-192.7139694 432.64826216 -192.7139694 432.64826216 -200.2109375 426.11450195 C-201.13326172 425.35459961 -201.13326172 425.35459961 -202.07421875 424.5793457 C-209.54041251 414.74699204 -208.44478128 403.36952606 -208.36499023 391.64428711 C-208.3655395 389.56065754 -208.3679175 387.47702778 -208.37197876 385.3934021 C-208.37713996 380.92231911 -208.37012763 376.45148209 -208.35372734 371.98042679 C-208.32856325 364.91301564 -208.33490416 357.84584601 -208.34620667 350.77841187 C-208.36937918 333.23355406 -208.35092917 315.68876718 -208.32470703 298.1439209 C-208.30477879 284.48976271 -208.29613783 270.83579743 -208.32164341 257.18163908 C-208.3334772 250.15269849 -208.32176584 243.12430754 -208.2923907 236.09542394 C-208.27916446 231.73141023 -208.28653312 227.36761131 -208.29967117 223.00360489 C-208.30153228 220.97666848 -208.29477191 218.94970354 -208.27886772 216.92282867 C-208.25837443 214.16098604 -208.26839021 211.40089113 -208.28611755 208.6390686 C-208.27271582 207.83266013 -208.25931408 207.02625165 -208.24550623 206.19540656 C-208.30386364 202.25799508 -208.48333527 200.58705582 -211.33921242 197.7659111 C-212.18375669 197.24157108 -213.02830097 196.71723106 -213.8984375 196.17700195 C-220.85943553 187.76709823 -219.60779944 176.69424719 -219.52734375 166.45043945 C-219.5281737 164.533334 -219.53063785 162.61622863 -219.53465271 160.6991272 C-219.53750004 156.69641505 -219.52291123 152.69426578 -219.49536133 148.69165039 C-219.46123423 143.57615075 -219.46732237 138.46165363 -219.4860239 133.34610558 C-219.49661926 129.39280929 -219.48763382 125.43974409 -219.47263908 121.48646927 C-219.46747854 119.60073153 -219.46791307 117.71496945 -219.47418404 115.82923508 C-219.47966893 113.18991358 -219.45915933 110.5520023 -219.43188477 107.9128418 C-219.43841064 107.1438002 -219.44493652 106.37475861 -219.45166016 105.58241272 C-219.33188929 98.72457064 -216.96528425 93.70314798 -212.6484375 88.42700195 C-205.33676083 82.44472104 -199.10730558 81.60241912 -189.79101562 81.72290039 C-188.5999118 81.72231628 -187.40880798 81.72173218 -186.18161011 81.72113037 C-182.93810474 81.72342845 -179.6953029 81.74339368 -176.45193672 81.7714262 C-173.05404889 81.79654723 -169.65614508 81.79879023 -166.25817871 81.80352783 C-159.833857 81.81592639 -153.40980979 81.84870519 -146.98560858 81.88892579 C-139.66758425 81.93374121 -132.34954634 81.95565499 -125.0314188 81.97570753 C-109.98693915 82.01744103 -94.94271587 82.0877317 -79.8984375 82.17700195 C-79.93324219 81.23598633 -79.96804687 80.2949707 -80.00390625 79.32543945 C-80.03097656 78.08020508 -80.05804688 76.8349707 -80.0859375 75.55200195 C-80.12074219 74.32223633 -80.15554687 73.0924707 -80.19140625 71.82543945 C-79.8085632 67.05776737 -78.47734339 63.65404295 -74.9609375 60.36450195 C-71.69292625 58.48291972 -68.51620921 58.05824742 -64.7890625 57.8605957 C-64.03496094 57.81870117 -63.28085938 57.77680664 -62.50390625 57.73364258 C-61.72660156 57.69432617 -60.94929687 57.65500977 -60.1484375 57.61450195 C-59.35566406 57.57131836 -58.56289062 57.52813477 -57.74609375 57.48364258 C-55.79705935 57.37797204 -53.84777002 57.27702229 -51.8984375 57.17700195 C-51.5360498 56.23493896 -51.17366211 55.29287598 -50.80029297 54.32226562 C-49.43246771 50.77255865 -48.05455954 47.22683344 -46.67382812 43.68212891 C-46.08162321 42.15777933 -45.49202898 40.63241248 -44.90527344 39.10595703 C-33.80551637 10.2484828 -33.80551637 10.2484828 -21.2734375 3.83325195 C-14.11079163 0.84881617 -7.69074909 0.02487875 0 0 Z M-14.52416992 28.81787109 C-17.76922004 34.52122341 -20.0599755 40.42283334 -22.2109375 46.61450195 C-22.74944336 48.12173828 -22.74944336 48.12173828 -23.29882812 49.65942383 C-25.06285443 53.81904072 -25.06285443 53.81904072 -25.8984375 58.17700195 C-25.06699219 58.35875977 -24.23554688 58.54051758 -23.37890625 58.7277832 C-21.74888672 59.10483398 -21.74888672 59.10483398 -20.0859375 59.48950195 C-19.00699219 59.73313477 -17.92804688 59.97676758 -16.81640625 60.2277832 C-13.89644073 61.1776515 -12.66033278 61.71268996 -10.8984375 64.17700195 C-9.4342685 70.03367794 -9.32855049 76.15542016 -8.8984375 82.17700195 C21.4615625 82.17700195 51.8215625 82.17700195 83.1015625 82.17700195 C83.4315625 77.55700195 83.7615625 72.93700195 84.1015625 68.17700195 C86.53293505 62.09857058 86.53293505 62.09857058 90.1015625 60.17700195 C91.64387003 59.78165661 93.19608039 59.42389171 94.75390625 59.0949707 C95.56722412 58.92118896 96.38054199 58.74740723 97.21850586 58.56835938 C97.83991455 58.43921143 98.46132324 58.31006348 99.1015625 58.17700195 C94.28050443 39.55216417 94.28050443 39.55216417 83.1015625 25.17700195 C79.17020481 23.79052093 75.07075621 24.02184747 70.95581055 24.01586914 C70.13741699 24.01090424 69.31902344 24.00593933 68.47583008 24.00082397 C65.77163854 23.98623367 63.06750567 23.97940552 60.36328125 23.97387695 C58.48004658 23.96812287 56.59681192 23.96236517 54.71357727 23.956604 C50.76518481 23.94610289 46.81681266 23.94025442 42.8684082 23.93676758 C37.81785561 23.93128513 32.76757292 23.90725864 27.71710491 23.87879562 C23.82653528 23.86013924 19.93603027 23.85496204 16.04541969 23.8534317 C14.18395322 23.85041136 12.32248772 23.84240377 10.46106529 23.82924652 C7.85233606 23.8121234 5.24426123 23.81408146 2.63549805 23.82055664 C1.87213638 23.81134186 1.10877472 23.80212708 0.32228088 23.79263306 C-5.2273279 23.83561592 -10.441186 24.6968717 -14.52416992 28.81787109 Z " fill="#AF6228" transform="translate(218.8984375,39.822998046875)"/>
<path d="M0 0 C0.88693039 -0.0065712 1.77386078 -0.0131424 2.68766785 -0.01991272 C5.61730038 -0.03958901 8.54688166 -0.05129848 11.4765625 -0.0612793 C12.48177948 -0.06535482 13.48699646 -0.06943035 14.52267456 -0.07362938 C19.84795931 -0.09447046 25.17321848 -0.10877816 30.49853516 -0.11816406 C35.97115242 -0.12919736 41.44335962 -0.16356746 46.91583252 -0.20333576 C51.14720358 -0.2296161 55.37847884 -0.23786621 59.60992432 -0.24144554 C61.62553665 -0.24628553 63.64114546 -0.25782468 65.65667725 -0.27648354 C79.57050835 -0.3972396 93.02074492 -0.47933192 104.13793945 9.17993164 C112.67109312 17.85843432 116.37732908 28.63616206 120.5390625 39.80200195 C121.18036838 41.49128757 121.82293727 43.18009427 122.46679688 44.8684082 C124.02632474 48.96590063 125.56865331 53.0694811 127.1015625 57.17700195 C128.71224609 57.23307617 128.71224609 57.23307617 130.35546875 57.2902832 C131.7916987 57.35599307 133.22789512 57.42243863 134.6640625 57.48950195 C135.36853516 57.51206055 136.07300781 57.53461914 136.79882812 57.55786133 C142.54004724 57.84889087 147.87744011 58.80460474 151.9765625 63.17700195 C154.29189979 67.29315714 154.2066425 70.72328156 154.1640625 75.36450195 C154.15503906 76.63680664 154.14601563 77.90911133 154.13671875 79.2199707 C154.11931641 80.68370117 154.11931641 80.68370117 154.1015625 82.17700195 C154.7229435 82.17331478 155.34432449 82.16962761 155.98453522 82.1658287 C171.12549913 82.07737342 186.26638341 82.01124183 201.40753937 81.96975327 C208.7297953 81.94915481 216.05187844 81.92108658 223.37402344 81.87524414 C229.75829485 81.83529269 236.14244106 81.80954939 242.52683401 81.80064797 C245.90532021 81.79544716 249.28344836 81.7832811 252.66181946 81.75408173 C256.43947503 81.72500795 260.21639101 81.72104782 263.99414062 81.72290039 C265.10616852 81.70851929 266.21819641 81.69413818 267.36392212 81.67932129 C275.41525772 81.72199166 280.68038541 83.30010303 286.8515625 88.48950195 C292.01027658 94.65129932 293.7004575 99.03784556 293.61914062 106.92285156 C293.62965454 108.19258064 293.62965454 108.19258064 293.64038086 109.48796082 C293.65789593 112.26876238 293.64636034 115.0485349 293.6328125 117.8293457 C293.63550953 119.77315973 293.63939371 121.71697243 293.64440918 123.66078186 C293.65029566 127.72841273 293.6417696 131.79569143 293.62304688 135.86328125 C293.60027315 141.06290998 293.61337591 146.26171204 293.63733673 151.46131039 C293.65183067 155.47378197 293.64717198 159.48605945 293.63682556 163.49853706 C293.63416742 165.41498476 293.63739574 167.33145038 293.64674377 169.24787712 C293.65696708 171.93297474 293.64132768 174.61675746 293.61914062 177.30175781 C293.62723755 178.08486328 293.63533447 178.86796875 293.64367676 179.67480469 C293.53893205 186.55910411 291.13080297 191.471348 287.0390625 196.92700195 C279.69204056 202.55450812 269.82378154 204.09411418 260.92578125 205.88793945 C258.43266752 206.40660504 255.93967324 206.92584503 253.44677734 207.44555664 C252.09226598 207.72546952 250.73775342 208.00537661 249.38323975 208.28527832 C242.41928771 209.72984246 235.46877691 211.23770243 228.51620865 212.73588562 C224.23202418 213.6584373 219.94704057 214.57726187 215.66210938 215.49633789 C214.35165492 215.77748695 214.35165492 215.77748695 213.01472664 216.0643158 C182.8765173 222.53015435 152.73481418 228.97641721 122.56567383 235.29663086 C121.01001457 235.62269821 121.01001457 235.62269821 119.42292786 235.95535278 C117.40659082 236.3778234 115.39014522 236.79977629 113.37358093 237.22116089 C107.73471796 238.40253159 102.10182647 239.60842496 96.47265625 240.83520508 C95.19293945 241.11309875 93.91322266 241.39099243 92.59472656 241.67730713 C90.10762288 242.21830962 87.62125754 242.76272066 85.13574219 243.31097412 C83.45399902 243.6763327 83.45399902 243.6763327 81.73828125 244.04907227 C80.74530029 244.26702454 79.75231934 244.48497681 78.72924805 244.70953369 C76.1015625 245.17700195 76.1015625 245.17700195 72.1015625 245.17700195 C72.11727295 246.33224365 72.1329834 247.48748535 72.14916992 248.67773438 C72.20356619 252.97339883 72.23794783 257.26903296 72.26635742 261.56494141 C72.28142196 263.4224154 72.30187759 265.27985396 72.32788086 267.13720703 C72.36436709 269.81071735 72.3813122 272.4837564 72.39453125 275.1574707 C72.41001511 275.98474167 72.42549896 276.81201263 72.44145203 277.66435242 C72.44279049 282.27427899 72.33277512 285.60133492 69.1015625 289.17700195 C63.13088694 292.77485548 57.34357146 292.62957235 50.5078125 292.6105957 C49.40232056 292.61583755 48.29682861 292.62107941 47.15783691 292.6264801 C44.82805214 292.63288366 42.49823496 292.63158499 40.16845703 292.62304688 C36.61301955 292.6145294 33.05918559 292.64333599 29.50390625 292.67504883 C27.23437548 292.67666088 24.96484188 292.67608323 22.6953125 292.6730957 C21.63783813 292.68432968 20.58036377 292.69556366 19.49084473 292.70713806 C13.17376657 292.64775528 9.17799063 292.06081132 4.1015625 288.17700195 C1.10675915 284.62099358 1.85142244 279.67652815 1.90625 275.25512695 C1.9090799 274.39514099 1.91190979 273.53515503 1.91482544 272.64910889 C1.926001 269.90826375 1.95110071 267.16774797 1.9765625 264.42700195 C1.9865957 262.5663296 1.99572095 260.70565211 2.00390625 258.8449707 C2.02593174 254.28885463 2.06044353 249.7329841 2.1015625 245.17700195 C1.52492859 245.1200415 0.94829468 245.06308105 0.35418701 245.00439453 C-4.2379575 244.52677633 -8.68854515 243.89709249 -13.1953125 242.86450195 C-14.37923584 242.59806885 -15.56315918 242.33163574 -16.78295898 242.05712891 C-18.69637085 241.62146606 -18.69637085 241.62146606 -20.6484375 241.17700195 C-36.38806507 237.64275457 -52.19470001 234.47694917 -68.02441406 231.37426758 C-77.11377177 229.58521745 -86.15938119 227.70417038 -95.16744995 225.54066467 C-100.74253958 224.20185456 -106.33346029 223.02109293 -111.9609375 221.92700195 C-114.09508129 221.50527473 -116.22919348 221.08338758 -118.36328125 220.66137695 C-120.12647705 220.31429687 -120.12647705 220.31429687 -121.92529297 219.96020508 C-169.52219228 210.58595342 -169.52219228 210.58595342 -186.56298828 206.70629883 C-188.12503699 206.35228235 -189.68854848 206.00466176 -191.25341797 205.66333008 C-210.33093702 201.49506449 -210.33093702 201.49506449 -215.8359375 193.05200195 C-218.72190205 188.02357558 -219.05601568 183.6849118 -219.07543945 177.97705078 C-219.08201065 177.1409024 -219.08858185 176.30475403 -219.09535217 175.44326782 C-219.11507661 172.67352202 -219.12674707 169.90383048 -219.13671875 167.1340332 C-219.14079428 166.1869367 -219.1448698 165.2398402 -219.14906883 164.26404381 C-219.16992786 159.24927361 -219.18422922 154.23453075 -219.19360352 149.21972656 C-219.20465594 144.04921991 -219.23904291 138.87914503 -219.27877522 133.70879078 C-219.30496948 129.72553223 -219.31329795 125.74237602 -219.31688499 121.75903893 C-219.32174519 119.85372699 -219.33334297 117.94841945 -219.35192299 116.04319191 C-219.37637001 113.36975941 -219.37533919 110.69743672 -219.3684082 108.02392578 C-219.38762329 106.85386742 -219.38762329 106.85386742 -219.40722656 105.66017151 C-219.3422432 98.74714785 -216.99876353 93.74406711 -212.6484375 88.42700195 C-205.33676083 82.44472104 -199.10730558 81.60241912 -189.79101562 81.72290039 C-188.5999118 81.72231628 -187.40880798 81.72173218 -186.18161011 81.72113037 C-182.93810474 81.72342845 -179.6953029 81.74339368 -176.45193672 81.7714262 C-173.05404889 81.79654723 -169.65614508 81.79879023 -166.25817871 81.80352783 C-159.833857 81.81592639 -153.40980979 81.84870519 -146.98560858 81.88892579 C-139.66758425 81.93374121 -132.34954634 81.95565499 -125.0314188 81.97570753 C-109.98693915 82.01744103 -94.94271587 82.0877317 -79.8984375 82.17700195 C-79.93324219 81.23598633 -79.96804687 80.2949707 -80.00390625 79.32543945 C-80.03097656 78.08020508 -80.05804688 76.8349707 -80.0859375 75.55200195 C-80.12074219 74.32223633 -80.15554687 73.0924707 -80.19140625 71.82543945 C-79.8085632 67.05776737 -78.47734339 63.65404295 -74.9609375 60.36450195 C-71.69292625 58.48291972 -68.51620921 58.05824742 -64.7890625 57.8605957 C-64.03496094 57.81870117 -63.28085938 57.77680664 -62.50390625 57.73364258 C-61.72660156 57.69432617 -60.94929687 57.65500977 -60.1484375 57.61450195 C-59.35566406 57.57131836 -58.56289062 57.52813477 -57.74609375 57.48364258 C-55.79705935 57.37797204 -53.84777002 57.27702229 -51.8984375 57.17700195 C-51.5360498 56.23493896 -51.17366211 55.29287598 -50.80029297 54.32226562 C-49.43246771 50.77255865 -48.05455954 47.22683344 -46.67382812 43.68212891 C-46.08162321 42.15777933 -45.49202898 40.63241248 -44.90527344 39.10595703 C-33.80551637 10.2484828 -33.80551637 10.2484828 -21.2734375 3.83325195 C-14.11079163 0.84881617 -7.69074909 0.02487875 0 0 Z M-14.52416992 28.81787109 C-17.76922004 34.52122341 -20.0599755 40.42283334 -22.2109375 46.61450195 C-22.74944336 48.12173828 -22.74944336 48.12173828 -23.29882812 49.65942383 C-25.06285443 53.81904072 -25.06285443 53.81904072 -25.8984375 58.17700195 C-25.06699219 58.35875977 -24.23554688 58.54051758 -23.37890625 58.7277832 C-21.74888672 59.10483398 -21.74888672 59.10483398 -20.0859375 59.48950195 C-19.00699219 59.73313477 -17.92804688 59.97676758 -16.81640625 60.2277832 C-13.89644073 61.1776515 -12.66033278 61.71268996 -10.8984375 64.17700195 C-9.4342685 70.03367794 -9.32855049 76.15542016 -8.8984375 82.17700195 C21.4615625 82.17700195 51.8215625 82.17700195 83.1015625 82.17700195 C83.4315625 77.55700195 83.7615625 72.93700195 84.1015625 68.17700195 C86.53293505 62.09857058 86.53293505 62.09857058 90.1015625 60.17700195 C91.64387003 59.78165661 93.19608039 59.42389171 94.75390625 59.0949707 C95.56722412 58.92118896 96.38054199 58.74740723 97.21850586 58.56835938 C97.83991455 58.43921143 98.46132324 58.31006348 99.1015625 58.17700195 C94.28050443 39.55216417 94.28050443 39.55216417 83.1015625 25.17700195 C79.17020481 23.79052093 75.07075621 24.02184747 70.95581055 24.01586914 C70.13741699 24.01090424 69.31902344 24.00593933 68.47583008 24.00082397 C65.77163854 23.98623367 63.06750567 23.97940552 60.36328125 23.97387695 C58.48004658 23.96812287 56.59681192 23.96236517 54.71357727 23.956604 C50.76518481 23.94610289 46.81681266 23.94025442 42.8684082 23.93676758 C37.81785561 23.93128513 32.76757292 23.90725864 27.71710491 23.87879562 C23.82653528 23.86013924 19.93603027 23.85496204 16.04541969 23.8534317 C14.18395322 23.85041136 12.32248772 23.84240377 10.46106529 23.82924652 C7.85233606 23.8121234 5.24426123 23.81408146 2.63549805 23.82055664 C1.87213638 23.81134186 1.10877472 23.80212708 0.32228088 23.79263306 C-5.2273279 23.83561592 -10.441186 24.6968717 -14.52416992 28.81787109 Z " fill="#C87629" transform="translate(218.8984375,39.822998046875)"/>
<path d="M0 0 C122.76 0 245.52 0 372 0 C372 8.25 372 16.5 372 25 C249.24 25 126.48 25 0 25 C0 16.75 0 8.5 0 0 Z " fill="#A45525" transform="translate(70,447)"/>
<path d="M0 0 C0.88693039 -0.0065712 1.77386078 -0.0131424 2.68766785 -0.01991272 C5.61730038 -0.03958901 8.54688166 -0.05129848 11.4765625 -0.0612793 C12.48177948 -0.06535482 13.48699646 -0.06943035 14.52267456 -0.07362938 C19.84795931 -0.09447046 25.17321848 -0.10877816 30.49853516 -0.11816406 C35.97115242 -0.12919736 41.44335962 -0.16356746 46.91583252 -0.20333576 C51.14720358 -0.2296161 55.37847884 -0.23786621 59.60992432 -0.24144554 C61.62553665 -0.24628553 63.64114546 -0.25782468 65.65667725 -0.27648354 C79.57050835 -0.3972396 93.02074492 -0.47933192 104.13793945 9.17993164 C112.67109312 17.85843432 116.37732908 28.63616206 120.5390625 39.80200195 C121.18036838 41.49128757 121.82293727 43.18009427 122.46679688 44.8684082 C124.02632474 48.96590063 125.56865331 53.0694811 127.1015625 57.17700195 C128.71224609 57.23307617 128.71224609 57.23307617 130.35546875 57.2902832 C131.7916987 57.35599307 133.22789512 57.42243863 134.6640625 57.48950195 C135.36853516 57.51206055 136.07300781 57.53461914 136.79882812 57.55786133 C142.54004724 57.84889087 147.87744011 58.80460474 151.9765625 63.17700195 C155.64130057 69.69209185 154.1015625 73.19408418 154.1015625 82.17700195 C130.6715625 82.17700195 107.2415625 82.17700195 83.1015625 82.17700195 C83.1015625 65.23582548 83.1015625 65.23582548 87.2265625 60.98950195 C90.82786334 58.71911664 93.9619065 58.13784235 98.1015625 57.17700195 C96.56138072 52.93937224 94.99059967 48.71372709 93.4140625 44.48950195 C92.76147461 42.69222656 92.76147461 42.69222656 92.09570312 40.85864258 C91.66064453 39.70170898 91.22558594 38.54477539 90.77734375 37.3527832 C90.38458252 36.28970947 89.99182129 35.22663574 89.5871582 34.13134766 C87.73394274 30.445931 85.45133357 27.06718775 81.44924927 25.55104065 C77.9588742 24.9949463 74.48078507 25.02099034 70.95581055 25.01586914 C70.13741699 25.01090424 69.31902344 25.00593933 68.47583008 25.00082397 C65.77163854 24.98623367 63.06750567 24.97940552 60.36328125 24.97387695 C58.48004658 24.96812287 56.59681192 24.96236517 54.71357727 24.956604 C50.76518481 24.94610289 46.81681266 24.94025442 42.8684082 24.93676758 C37.81785561 24.93128513 32.76757292 24.90725864 27.71710491 24.87879562 C23.82653528 24.86013924 19.93603027 24.85496204 16.04541969 24.8534317 C14.18395322 24.85041136 12.32248772 24.84240377 10.46106529 24.82924652 C7.85233606 24.8121234 5.24426123 24.81408146 2.63549805 24.82055664 C1.87213638 24.81134186 1.10877472 24.80212708 0.32228088 24.79263306 C-4.79108405 24.83223712 -8.34507189 25.81134732 -12.8984375 28.17700195 C-14.52688138 29.93250491 -14.52688138 29.93250491 -15.3984375 32.17700195 C-15.78386719 33.04067383 -16.16929687 33.9043457 -16.56640625 34.79418945 C-19.48417953 42.20413568 -22.23265144 49.67305107 -24.8984375 57.17700195 C-24.15078125 57.3471582 -23.403125 57.51731445 -22.6328125 57.69262695 C-21.64796875 57.9349707 -20.663125 58.17731445 -19.6484375 58.42700195 C-18.67390625 58.6590332 -17.699375 58.89106445 -16.6953125 59.13012695 C-13.50902435 60.32275995 -12.00728909 61.52642702 -9.8984375 64.17700195 C-8.8984375 68.17700195 -8.8984375 68.17700195 -8.8984375 82.17700195 C-32.3284375 82.17700195 -55.7584375 82.17700195 -79.8984375 82.17700195 C-79.8984375 68.17700195 -79.8984375 68.17700195 -76.8984375 62.17700195 C-73.2555027 58.76909521 -69.64810923 58.11827242 -64.7890625 57.8605957 C-64.03496094 57.81870117 -63.28085938 57.77680664 -62.50390625 57.73364258 C-61.72660156 57.69432617 -60.94929688 57.65500977 -60.1484375 57.61450195 C-59.35566406 57.57131836 -58.56289062 57.52813477 -57.74609375 57.48364258 C-55.79705935 57.37797204 -53.84777002 57.27702229 -51.8984375 57.17700195 C-51.5360498 56.23493896 -51.17366211 55.29287598 -50.80029297 54.32226562 C-49.43246771 50.77255865 -48.05455954 47.22683344 -46.67382812 43.68212891 C-46.08162321 42.15777933 -45.49202898 40.63241248 -44.90527344 39.10595703 C-33.80551637 10.2484828 -33.80551637 10.2484828 -21.2734375 3.83325195 C-14.11079163 0.84881617 -7.69074909 0.02487875 0 0 Z " fill="#9AA6AE" transform="translate(218.8984375,39.822998046875)"/>
<path d="M0 0 C0 57.42 0 114.84 0 174 C-7.92 174 -15.84 174 -24 174 C-24.0093457 170.2354541 -24.01869141 166.4709082 -24.02832031 162.59228516 C-24.06212285 150.13910129 -24.11749041 137.68609107 -24.18390274 125.23304176 C-24.22363503 117.68449188 -24.25605689 110.13604537 -24.27099609 102.58740234 C-24.2840429 96.00449518 -24.31108423 89.42181602 -24.35461307 82.8390373 C-24.37716037 79.35662013 -24.39291477 75.87448347 -24.39188385 72.39198685 C-24.39099336 68.49497805 -24.42136072 64.59853818 -24.45410156 60.70166016 C-24.4490712 59.55941986 -24.44404083 58.41717957 -24.43885803 57.24032593 C-24.55092396 48.58995582 -26.4090618 41.92342071 -31.1875 34.6875 C-38.57544081 27.62791211 -46.05689047 25.63291933 -56.03857422 25.72314453 C-64.0223798 26.28111541 -71.76656125 28.20127969 -79.5625 29.9375 C-81.45116748 30.34771335 -83.34017295 30.75637322 -85.22949219 31.16357422 C-88.17184565 31.79775083 -91.11399064 32.43273258 -94.05514526 33.07244873 C-103.67370032 35.16193894 -113.31797343 37.11629187 -122.96640015 39.06219482 C-136.247451 41.74743859 -149.52499898 44.46111 -162.75793457 47.37542725 C-164.6753983 47.79613188 -166.59498976 48.20710287 -168.51464844 48.61767578 C-179.23334915 51.01754249 -187.15758635 54.18377252 -193.5546875 63.5546875 C-196.42872544 68.2099612 -196.94089169 72.50928241 -197.4375 77.875 C-198.50825227 86.55611016 -199.91509314 93.8974047 -207.0625 99.6640625 C-211.3722623 102.50026637 -215.17256111 104.10648337 -220.3762207 104.19287109 C-221.2575618 104.20893402 -222.13890289 104.22499695 -223.04695129 104.24154663 C-227.072226 104.28613749 -231.0973387 104.32705408 -235.12280273 104.35009766 C-237.24400808 104.36665816 -239.36515761 104.39394929 -241.48608398 104.43212891 C-244.54960989 104.48696671 -247.61183029 104.50878158 -250.67578125 104.5234375 C-252.09169304 104.55744156 -252.09169304 104.55744156 -253.53620911 104.59213257 C-257.82900651 104.5783981 -261.05844686 104.45663465 -264.58276367 101.84228516 C-267.21901881 98.74246874 -267.81326462 97.01481077 -268 93 C-267.41419662 92.99413376 -266.82839325 92.98826752 -266.22483826 92.98222351 C-260.10848231 92.91811604 -253.9926441 92.83365199 -247.87670898 92.73754883 C-245.59650514 92.70436633 -243.31622047 92.67631376 -241.03588867 92.65356445 C-237.75144118 92.61989618 -234.46772986 92.56757274 -231.18359375 92.51171875 C-229.66287514 92.50213387 -229.66287514 92.50213387 -228.11143494 92.49235535 C-222.36057595 92.37383657 -218.00927893 91.94120115 -213 89 C-210.00797888 85.54535921 -210.64636809 80.43302605 -210.5859375 76.078125 C-210.56657135 75.21813904 -210.5472052 74.35815308 -210.5272522 73.47210693 C-210.46758186 70.73150479 -210.4211214 67.99086036 -210.375 65.25 C-210.33680866 63.38930483 -210.29775625 61.52862712 -210.2578125 59.66796875 C-210.16189065 55.11212136 -210.07781332 50.55619121 -210 46 C-207.04297335 45.36195786 -204.0859421 44.72393703 -201.12890625 44.0859375 C-200.17490433 43.88010544 -199.2209024 43.67427338 -198.23799133 43.46220398 C-192.72074858 42.27189481 -187.20343864 41.08189791 -181.68603516 39.89233398 C-179.27376271 39.37223449 -176.86149059 38.85213355 -174.44921875 38.33203125 C-173.20493103 38.06376022 -171.96064331 37.7954892 -170.6786499 37.51908875 C-163.49843254 35.97078706 -156.31854211 34.42098685 -149.13901615 32.86948299 C-141.71796451 31.26582463 -134.29658573 29.66368478 -126.875 28.0625 C-126.19519955 27.91580997 -125.51539909 27.76911995 -124.81499863 27.61798477 C-105.56095472 23.46375811 -86.29622104 19.36544612 -67.01776123 15.32583618 C-42.60923968 10.21470991 -42.60923968 10.21470991 -18.25 4.875 C-16.42154541 4.46809937 -16.42154541 4.46809937 -14.55615234 4.05297852 C-13.47027832 3.80604248 -12.3844043 3.55910645 -11.265625 3.3046875 C-10.35586914 3.09827637 -9.44611328 2.89186523 -8.50878906 2.67919922 C-5.80703177 1.94775811 -2.76025104 0 0 0 Z " fill="#A35425" transform="translate(501,239)"/>
<path d="M0 0 C1.10149384 -0.01591187 2.20298767 -0.03182373 3.33786011 -0.04821777 C4.52332428 -0.04841919 5.70878845 -0.04862061 6.93017578 -0.04882812 C8.76480881 -0.06024841 8.76480881 -0.06024841 10.63650513 -0.07189941 C13.22379515 -0.08270531 15.81112882 -0.08555156 18.3984375 -0.08105469 C22.3537696 -0.08008346 26.30715558 -0.12168201 30.26220703 -0.16601562 C32.7765259 -0.17122337 35.29085152 -0.17391081 37.80517578 -0.17382812 C38.98659149 -0.19022339 40.1680072 -0.20661865 41.38522339 -0.22351074 C50.54014556 -0.1466101 50.54014556 -0.1466101 54.23144531 2.83203125 C57.34925916 6.38796269 57.62862496 7.9891365 57.66162109 12.61645508 C57.67122864 13.70130692 57.68083618 14.78615875 57.69073486 15.90388489 C57.69498474 17.08093491 57.69923462 18.25798492 57.70361328 19.47070312 C57.70931335 20.67679733 57.71501343 21.88289154 57.72088623 23.12553406 C57.73034674 25.68190633 57.73687437 28.23829085 57.74072266 30.79467773 C57.75042222 34.70578315 57.78143419 38.6163619 57.81298828 42.52734375 C57.81951872 45.00846041 57.82476903 47.48958084 57.82861328 49.97070312 C57.84096008 51.14168045 57.85330688 52.31265778 57.86602783 53.51911926 C57.86302673 54.61342758 57.86002563 55.7077359 57.85693359 56.83520508 C57.86240204 58.27510551 57.86240204 58.27510551 57.86798096 59.74409485 C57.42600581 62.96225161 56.41591359 64.81379751 54.50048828 67.41992188 C48.52981272 71.0177754 42.74249724 70.87249227 35.90673828 70.85351562 C34.24850037 70.8613784 34.24850037 70.8613784 32.5567627 70.86940002 C30.22697792 70.87580358 27.89716074 70.87450491 25.56738281 70.8659668 C22.01194533 70.85744932 18.45811137 70.88625591 14.90283203 70.91796875 C12.63330126 70.9195808 10.36376766 70.91900315 8.09423828 70.91601562 C6.50802673 70.93286659 6.50802673 70.93286659 4.88977051 70.95005798 C-1.42730765 70.8906752 -5.42308359 70.30373124 -10.49951172 66.41992188 C-12.49409379 63.31493504 -12.755767 60.84875025 -12.77416992 57.19580078 C-12.78370193 56.1543692 -12.79323395 55.11293762 -12.80305481 54.03994751 C-12.8021434 52.92010468 -12.80123199 51.80026184 -12.80029297 50.64648438 C-12.80457809 49.48998383 -12.80886322 48.33348328 -12.8132782 47.14193726 C-12.81902043 44.69586847 -12.81952255 42.24978261 -12.81518555 39.80371094 C-12.81202961 36.06610871 -12.83547328 32.32930101 -12.86083984 28.59179688 C-12.86311327 26.21419371 -12.86381613 23.83658841 -12.86279297 21.45898438 C-12.87200272 20.34319 -12.88121246 19.22739563 -12.89070129 18.07778931 C-12.83148547 8.1171807 -12.83148547 8.1171807 -9.49951172 3.41992188 C-6.35335489 0.52037786 -4.23777643 0.03686365 0 0 Z " fill="#F5B444" transform="translate(233.49951171875,261.580078125)"/>
<path d="M0 0 C0.9029631 0.0028299 1.80592621 0.00565979 2.73625183 0.00857544 C5.60946109 0.01973643 8.4823543 0.04483353 11.35546875 0.0703125 C13.30793819 0.08034757 15.26041254 0.0894725 17.21289062 0.09765625 C21.98970441 0.11966242 26.76628306 0.15416419 31.54296875 0.1953125 C31.64261699 5.56635259 31.71480167 10.93684236 31.76269531 16.30859375 C31.78268239 18.13193142 31.80988161 19.95520606 31.84472656 21.77832031 C32.24005244 43.00964554 32.24005244 43.00964554 25.71875 51.59765625 C25.10386719 52.10425781 24.48898437 52.61085938 23.85546875 53.1328125 C23.25347656 53.65746094 22.65148437 54.18210937 22.03125 54.72265625 C15.46218347 58.61047113 8.87397015 59.63670505 1.3515625 59.48828125 C0.52084732 59.48403641 -0.30986786 59.47979156 -1.16575623 59.47541809 C-3.78403007 59.45880564 -6.4014954 59.4211888 -9.01953125 59.3828125 C-10.80923357 59.36774303 -12.59894812 59.35405862 -14.38867188 59.34179688 C-18.74509679 59.3089597 -23.1009276 59.25730186 -27.45703125 59.1953125 C-27.55639004 53.50281791 -27.62873048 47.81083532 -27.67675781 42.11767578 C-27.69679266 40.18366698 -27.72402854 38.24971815 -27.75878906 36.31591797 C-27.80766696 33.52556507 -27.83008144 30.73601749 -27.84765625 27.9453125 C-27.87862396 26.6620105 -27.87862396 26.6620105 -27.91021729 25.3527832 C-27.91283351 18.2499081 -26.00465265 13.06651372 -21.2734375 7.734375 C-20.15775391 6.78691406 -20.15775391 6.78691406 -19.01953125 5.8203125 C-18.27832031 5.17320312 -17.53710938 4.52609375 -16.7734375 3.859375 C-11.31818497 -0.05957538 -6.4899635 -0.07691353 0 0 Z " fill="#F09921" transform="translate(469.45703125,412.8046875)"/>
<path d="M0 0 C5.69249459 -0.09935879 11.38447718 -0.17169923 17.07763672 -0.21972656 C19.01164552 -0.23976141 20.94559435 -0.26699729 22.87939453 -0.30175781 C25.66974743 -0.35063571 28.45929501 -0.37305019 31.25 -0.390625 C32.10553467 -0.41127014 32.96106934 -0.43191528 33.8425293 -0.45318604 C40.9454044 -0.45580226 46.12879878 1.4523786 51.4609375 6.18359375 C52.09257813 6.92738281 52.72421875 7.67117188 53.375 8.4375 C54.34566406 9.54931641 54.34566406 9.54931641 55.3359375 10.68359375 C59.25488788 16.13884628 59.27222603 20.96706775 59.1953125 27.45703125 C59.1924826 28.35999435 59.18965271 29.26295746 59.18673706 30.19328308 C59.17557607 33.06649234 59.15047897 35.93938555 59.125 38.8125 C59.11496493 40.76496944 59.10584 42.71744379 59.09765625 44.66992188 C59.07565008 49.44673566 59.04114831 54.22331431 59 59 C53.75304201 59.07466663 48.50639957 59.12884421 43.2590332 59.16479492 C41.47740281 59.17979643 39.69580881 59.20020433 37.91430664 59.22631836 C35.33991465 59.26308509 32.7660147 59.27981285 30.19140625 59.29296875 C29.40665421 59.30845261 28.62190216 59.32393646 27.81336975 59.33988953 C20.57473412 59.34204741 13.27621521 57.80817899 7.6875 52.9375 C7.07261719 52.43089844 6.45773438 51.92429687 5.82421875 51.40234375 C-1.60142511 41.62339092 -0.47297375 30.5411548 -0.25 18.875 C-0.22990356 17.04168618 -0.21165835 15.20835109 -0.1953125 13.375 C-0.15156736 8.91613477 -0.08271439 4.45830562 0 0 Z " fill="#F4B344" transform="translate(11,413)"/>
<path d="M0 0 C0.95519531 0.34611328 0.95519531 0.34611328 1.9296875 0.69921875 C11.83726362 4.02364416 21.95222268 5.81315512 32.20703125 7.72265625 C38.32225736 8.86155568 44.4136124 10.09170348 50.5 11.375 C57.3090536 12.80893545 64.11961362 14.23358026 70.9375 15.625 C84.75180523 18.44660427 98.54802683 21.31789184 112.3125 24.375 C126.21128756 27.45808325 140.16159344 30.24707408 154.12792969 33.00601196 C172.82106145 36.70450091 191.42326994 40.75804194 210 45 C210 48.96 210 52.92 210 57 C196.29701859 54.28094263 182.61079486 51.48953077 168.9375 48.625 C167.9985791 48.4285791 167.0596582 48.2321582 166.09228516 48.02978516 C155.21304754 45.75230725 144.3432529 43.44408706 133.5 41 C122.47999149 38.51841145 111.43270621 36.18134027 100.375 33.875 C99.49096497 33.69055328 98.60692993 33.50610657 97.69610596 33.31607056 C93.93926696 32.53237252 90.18235897 31.74900605 86.42538452 30.96595764 C74.49938753 28.4798611 62.5754701 25.98389377 50.65313721 23.48028564 C48.16465908 22.95811569 45.67601552 22.43673343 43.18719482 21.91619873 C20.51690454 17.17441182 20.51690454 17.17441182 10.0078125 14.76953125 C9.32500214 14.61731613 8.64219177 14.46510101 7.93869019 14.30827332 C4.76974101 13.56688852 2.7524223 12.8349482 0 11 C-0.29296875 8.3984375 -0.29296875 8.3984375 -0.1875 5.375 C-0.16042969 4.37210938 -0.13335937 3.36921875 -0.10546875 2.3359375 C-0.07066406 1.56507813 -0.03585937 0.79421875 0 0 Z " fill="#A35425" transform="translate(11,240)"/>
<path d="M0 0 C7 1 7 1 9.90039062 3.28491211 C13.34538433 8.04293502 12.67348428 13.81751901 12.59375 19.44140625 C12.59379028 20.64184067 12.59383057 21.84227509 12.59387207 23.0790863 C12.58852052 25.61161548 12.57095378 28.14414444 12.54199219 30.67651367 C12.50010875 34.55243663 12.50092819 38.42662306 12.5078125 42.30273438 C12.49732077 44.76563707 12.48438277 47.22853082 12.46875 49.69140625 C12.46844788 51.42904991 12.46844788 51.42904991 12.46813965 53.20179749 C12.45222778 54.28319504 12.43631592 55.36459259 12.41992188 56.47875977 C12.41150269 57.42662857 12.4030835 58.37449738 12.39440918 59.35108948 C11.92002978 62.53709187 10.89482629 64.41120578 9 67 C3.02932444 70.59785352 -2.75799104 70.4525704 -9.59375 70.43359375 C-11.25198792 70.44145653 -11.25198792 70.44145653 -12.94372559 70.44947815 C-15.27351036 70.45588171 -17.60332754 70.45458304 -19.93310547 70.44604492 C-23.48854295 70.43752745 -27.04237691 70.46633404 -30.59765625 70.49804688 C-32.86718702 70.49965893 -35.13672062 70.49908128 -37.40625 70.49609375 C-38.99246155 70.51294472 -38.99246155 70.51294472 -40.61071777 70.53013611 C-46.95243538 70.47052171 -50.83856877 69.77211961 -56 66 C-58.1518868 63.00607054 -58 61.86092651 -58 58 C-38.86 58 -19.72 58 0 58 C0 38.86 0 19.72 0 0 Z " fill="#F09921" transform="translate(279,262)"/>
<path d="M0 0 C1.53947296 -0.01268921 1.53947296 -0.01268921 3.11004639 -0.02563477 C4.23533752 -0.01956207 5.36062866 -0.01348938 6.52001953 -0.00723267 C8.29835175 -0.0151181 8.29835175 -0.0151181 10.11260986 -0.02316284 C13.36471968 -0.03411439 16.616464 -0.0315332 19.86856842 -0.02202559 C23.27045974 -0.01443501 26.67232648 -0.02147291 30.07421875 -0.02618408 C35.78731679 -0.03164341 41.50029852 -0.02444545 47.21337891 -0.01016235 C53.82031767 0.00616461 60.42697872 0.00087622 67.03391075 -0.01564157 C72.70448371 -0.02925147 78.37497301 -0.03117857 84.04555702 -0.02332556 C87.43322935 -0.01864627 90.8207711 -0.0180311 94.20843506 -0.02793503 C97.98436439 -0.03552735 101.75975544 -0.02397562 105.53564453 -0.00723267 C106.66093567 -0.01330536 107.78622681 -0.01937805 108.94561768 -0.02563477 C109.97193298 -0.01717529 110.99824829 -0.00871582 112.05566406 0 C112.94867218 0.00113108 113.8416803 0.00226215 114.76174927 0.00342751 C117.4992659 0.45949057 118.38896287 1.1747934 120.02783203 3.38095093 C120.40283203 5.88095093 120.40283203 5.88095093 120.02783203 8.38095093 C118.38390258 10.59960098 117.49510887 11.30430256 114.74333858 11.75568104 C113.39081666 11.75542943 113.39081666 11.75542943 112.01097107 11.75517273 C110.97479645 11.76218704 109.93862183 11.76920135 108.87104797 11.77642822 C107.16672859 11.76496262 107.16672859 11.76496262 105.42797852 11.75326538 C104.23106384 11.75691605 103.03414917 11.76056671 101.80096436 11.764328 C98.51792159 11.77105111 95.23524771 11.76431134 91.95223498 11.75099587 C88.51918662 11.73968725 85.08615306 11.74378836 81.65309143 11.7457428 C75.88871382 11.74662584 70.1244538 11.73554227 64.36010742 11.71713257 C57.69071103 11.69595469 51.0214868 11.6924571 44.3520636 11.69869453 C37.94107182 11.7043838 31.53014081 11.69874836 25.11915779 11.68752098 C22.38832541 11.6828702 19.65753014 11.68200319 16.92669487 11.68410683 C13.1171251 11.68447596 9.30782103 11.67190001 5.49829102 11.65560913 C4.36005386 11.65808655 3.22181671 11.66056396 2.04908752 11.66311646 C1.01573273 11.65603165 -0.01762207 11.64894684 -1.08229065 11.64164734 C-2.43424703 11.63856803 -2.43424703 11.63856803 -3.81351566 11.63542652 C-5.97216797 11.38095093 -5.97216797 11.38095093 -7.97216797 9.38095093 C-8.52877589 4.14883648 -8.52877589 4.14883648 -6.76339722 1.71335411 C-4.39282085 -0.04999555 -2.94103025 0.00372508 0 0 Z " fill="#D98B35" transform="translate(112.97216796875,133.61904907226563)"/>
<path d="M0 0 C1.22585312 -0.0066568 2.45170624 -0.0133136 3.71470642 -0.02017212 C6.30775456 -0.0302854 8.90082865 -0.03498955 11.49389648 -0.03466797 C15.42671672 -0.03902031 19.3583953 -0.07529922 23.29101562 -0.11328125 C25.81900661 -0.11915408 28.34700289 -0.12312035 30.875 -0.125 C32.03588638 -0.13937103 33.19677277 -0.15374207 34.39283752 -0.16854858 C46.13741622 -0.10407214 57.28361519 2.58944479 66.40234375 10.3359375 C66.89734375 11.3259375 66.89734375 11.3259375 67.40234375 12.3359375 C66.38614456 12.33958313 65.36994537 12.34322876 64.32295227 12.34698486 C54.74410856 12.38393336 45.16558638 12.44170439 35.5869875 12.51984024 C30.66255171 12.55934189 25.73829546 12.59151718 20.8137207 12.60693359 C16.06079427 12.62208248 11.30836133 12.65649653 6.55565453 12.70424652 C4.74283323 12.71907858 2.92994148 12.72697956 1.11705971 12.72782135 C-1.42338997 12.73018731 -3.96247171 12.75723562 -6.50268555 12.79003906 C-7.62586182 12.78249352 -7.62586182 12.78249352 -8.77172852 12.77479553 C-13.65654924 12.87232463 -16.18486671 13.83655647 -19.59765625 17.3359375 C-21.27351273 20.24485526 -21.27351273 20.24485526 -22.53515625 23.5859375 C-22.90084717 24.4833667 -22.90084717 24.4833667 -23.27392578 25.39892578 C-24.06878435 27.37060113 -24.83674921 29.35092185 -25.59765625 31.3359375 C-25.87851074 32.0671582 -26.15936523 32.79837891 -26.44873047 33.55175781 C-28.19949811 38.1340383 -29.91073315 42.72979995 -31.59765625 47.3359375 C-35.55765625 47.3359375 -39.51765625 47.3359375 -43.59765625 47.3359375 C-42.06374317 43.24954456 -40.52077812 39.16694645 -38.97265625 35.0859375 C-38.54597656 33.94640625 -38.11929688 32.806875 -37.6796875 31.6328125 C-28.1640487 6.63650759 -28.1640487 6.63650759 -16.23852539 1.27539062 C-10.83916068 -0.11780695 -5.55522158 0.01052202 0 0 Z " fill="#73828B" transform="translate(222.59765625,51.6640625)"/>
<path d="M0 0 C0.85857101 0.00424484 1.71714203 0.00848969 2.60173035 0.01286316 C5.33246789 0.0295988 8.06245587 0.06724109 10.79296875 0.10546875 C12.64907785 0.12052222 14.50519857 0.13420947 16.36132812 0.14648438 C20.90155978 0.17692849 25.44017949 0.23565795 29.98046875 0.29296875 C29.98046875 8.21296875 29.98046875 16.13296875 29.98046875 24.29296875 C24.7329743 24.36218338 19.48709071 24.42181143 14.23950195 24.45776367 C12.45787156 24.47276518 10.67627756 24.49317308 8.89477539 24.51928711 C6.3203834 24.55605384 3.74648345 24.5727816 1.171875 24.5859375 C0.38712296 24.60142136 -0.39762909 24.61690521 -1.2061615 24.63285828 C-6.94914258 24.63457029 -11.68536352 23.38678056 -17.01953125 21.29296875 C-16.35953125 20.96296875 -15.69953125 20.63296875 -15.01953125 20.29296875 C-15.34953125 19.79796875 -15.67953125 19.30296875 -16.01953125 18.79296875 C-17.85578376 14.20233747 -17.71828427 9.9479101 -15.83203125 5.48046875 C-11.27270423 -0.0221673 -6.67954467 -0.12501963 0 0 Z " fill="#F09921" transform="translate(40.01953125,447.70703125)"/>
<path d="M0 0 C1.13598633 0.00483398 1.13598633 0.00483398 2.29492188 0.00976562 C3.47344727 0.02233398 3.47344727 0.02233398 4.67578125 0.03515625 C5.47306641 0.03966797 6.27035156 0.04417969 7.09179688 0.04882812 C9.05732382 0.06059775 11.0228121 0.07853277 12.98828125 0.09765625 C13.10454061 4.65994166 13.17555533 9.22184553 13.23828125 13.78515625 C13.28855469 15.72551758 13.28855469 15.72551758 13.33984375 17.70507812 C13.35273438 18.95224609 13.365625 20.19941406 13.37890625 21.484375 C13.39985352 22.63123779 13.42080078 23.77810059 13.44238281 24.9597168 C12.89058204 28.77277877 11.66161461 30.37683645 8.98828125 33.09765625 C3.34982615 36.06807266 -3.18164429 35.31766917 -9.38671875 35.22265625 C-10.50433594 35.21363281 -11.62195313 35.20460938 -12.7734375 35.1953125 C-15.51975337 35.17183971 -18.26562347 35.13900353 -21.01171875 35.09765625 C-21.18810713 31.93171089 -21.29323951 28.76704752 -21.38671875 25.59765625 C-21.43699219 24.71078125 -21.48726563 23.82390625 -21.5390625 22.91015625 C-21.67370129 16.80653108 -20.58757726 13.38411424 -16.59765625 8.72802734 C-14.77235469 6.85158587 -12.96653096 5.16960976 -10.82421875 3.66015625 C-10.17066406 3.18707031 -9.51710938 2.71398437 -8.84375 2.2265625 C-5.87904556 0.39969772 -3.40072832 -0.02556939 0 0 Z " fill="#F5B444" transform="translate(464.01171875,412.90234375)"/>
<path d="M0 0 C23.43 0 46.86 0 71 0 C71 3.96 71 7.92 71 12 C47.57 12 24.14 12 0 12 C0 8.04 0 4.08 0 0 Z " fill="#74838C" transform="translate(302,110)"/>
<path d="M0 0 C23.43 0 46.86 0 71 0 C71 3.96 71 7.92 71 12 C47.57 12 24.14 12 0 12 C0 8.04 0 4.08 0 0 Z " fill="#74838C" transform="translate(139,110)"/>
<path d="M0 0 C3.4375 0.875 3.4375 0.875 5.4375 3.875 C5.70492554 6.56260681 5.70492554 6.56260681 5.72802734 9.84350586 C5.7471669 11.68572975 5.7471669 11.68572975 5.76669312 13.56517029 C5.76975045 14.90672651 5.77197838 16.24828484 5.7734375 17.58984375 C5.7798648 18.96603027 5.78659311 20.34221541 5.79360962 21.71839905 C5.80558293 24.60258146 5.80929036 27.48664409 5.80810547 30.37084961 C5.80790218 34.0643908 5.83521344 37.75716343 5.86964989 41.45052242 C5.89190019 44.29272481 5.89594362 47.1347416 5.89488602 49.97702217 C5.89724446 51.33858453 5.90608185 52.70015181 5.92155075 54.06162834 C5.94117044 55.9666845 5.93286049 57.87196622 5.92333984 59.77709961 C5.92618988 60.86059189 5.92903992 61.94408417 5.93197632 63.06040955 C5.31836509 66.55312345 4.20794969 67.72849596 1.4375 69.875 C-1.125 70.375 -1.125 70.375 -3.5625 69.875 C-6.75433857 66.65118262 -6.94106894 64.12149293 -6.95068359 59.68530273 C-6.96014008 58.43398056 -6.96959656 57.18265839 -6.9793396 55.89341736 C-6.97397031 54.53180626 -6.96781747 53.17019805 -6.9609375 51.80859375 C-6.96295906 50.40902047 -6.96587118 49.00944822 -6.96963501 47.60987854 C-6.9740531 44.68032782 -6.96764325 41.75105193 -6.95361328 38.8215332 C-6.93650544 35.06636196 -6.94637529 31.31183323 -6.96433067 27.55668545 C-6.97516917 24.66818903 -6.97172224 21.77984507 -6.9639473 18.89134407 C-6.96194627 17.50665269 -6.96440118 16.12194747 -6.97138596 14.73727226 C-6.9790023 12.80328511 -6.96533571 10.86924939 -6.95068359 8.93530273 C-6.94829681 7.83484116 -6.94591003 6.73437958 -6.94345093 5.60057068 C-6.5625 2.875 -6.5625 2.875 -5.26089478 0.98841858 C-3.5625 -0.125 -3.5625 -0.125 0 0 Z " fill="#C87528" transform="translate(29.5625,285.125)"/>
<path d="M0 0 C1.27141846 -0.00945648 2.54283691 -0.01891296 3.8527832 -0.02865601 C5.24170238 -0.02328631 6.63061873 -0.01713337 8.01953125 -0.01025391 C9.44295399 -0.01227479 10.86637572 -0.01518636 12.28979492 -0.01895142 C15.27239849 -0.02337412 18.25473246 -0.01694576 21.23730469 -0.00292969 C25.06088216 0.01416256 28.88382791 0.00432104 32.7073822 -0.01364708 C35.64649212 -0.02448659 38.58545222 -0.0210379 41.52456665 -0.0132637 C42.93437779 -0.01126214 44.34420253 -0.01371947 45.7539978 -0.02070236 C47.72401673 -0.02831864 49.69408334 -0.0146522 51.6640625 0 C52.78530518 0.00238678 53.90654785 0.00477356 55.06176758 0.00723267 C57.83203125 0.38818359 57.83203125 0.38818359 59.7331543 1.68588257 C60.83203125 3.38818359 60.83203125 3.38818359 60.58203125 7.01318359 C59.83203125 10.38818359 59.83203125 10.38818359 58.83203125 11.38818359 C56.82341134 11.49804547 54.81090267 11.5373044 52.79931641 11.54931641 C51.50772614 11.55892395 50.21613586 11.56853149 48.88540649 11.57843018 C47.4639707 11.58327776 46.04253286 11.58755668 44.62109375 11.59130859 C43.17239377 11.59705776 41.72369381 11.60281552 40.2749939 11.60858154 C37.23345585 11.619101 34.19194431 11.62493734 31.15039062 11.62841797 C27.25059284 11.6339022 23.35114431 11.65792432 19.45145607 11.68638992 C16.45747858 11.7050036 13.46358537 11.71022123 10.4695549 11.71175385 C9.03181424 11.71478423 7.5940752 11.72282578 6.15639114 11.73593903 C4.14550918 11.75296972 2.13448386 11.74927879 0.12353516 11.74462891 C-1.02150482 11.74827454 -2.1665448 11.75192017 -3.34628296 11.75567627 C-6.16796875 11.38818359 -6.16796875 11.38818359 -8.03775024 10.02215576 C-9.6590145 7.67827212 -9.58566742 6.17284137 -9.16796875 3.38818359 C-6.67343743 -0.18937625 -4.16426986 0.00886445 0 0 Z " fill="#D98B35" transform="translate(32.16796875,133.61181640625)"/>
<path d="M0 0 C8.14901549 0.94618467 14.25125887 5.625133 19.625 11.6875 C24.51842156 18.44180018 27.09650241 26.58765754 29.99609375 34.33837891 C30.99243479 36.97994264 32.02099678 39.60641526 33.0625 42.23046875 C33.70839322 43.86195546 34.35422901 45.49346491 35 47.125 C35.30292969 47.88868896 35.60585938 48.65237793 35.91796875 49.43920898 C38 54.77197036 38 54.77197036 38 57 C34.7 57 31.4 57 28 57 C27.51644043 55.77482666 27.03288086 54.54965332 26.53466797 53.28735352 C24.72246213 48.70401868 22.8964488 44.12628766 21.06640625 39.55004883 C20.2791521 37.57594452 19.4955536 35.600378 18.71582031 33.62329102 C17.58857756 30.76698472 16.44789976 27.91635249 15.3046875 25.06640625 C14.96380096 24.19415909 14.62291443 23.32191193 14.271698 22.42323303 C10.8440648 13.95052715 5.98578066 6.86604253 0 0 Z " fill="#74838D" transform="translate(308,42)"/>
<path d="M0 0 C1.71316406 -0.00580078 1.71316406 -0.00580078 3.4609375 -0.01171875 C5.24371094 0.00568359 5.24371094 0.00568359 7.0625 0.0234375 C8.25101563 0.01183594 9.43953125 0.00023437 10.6640625 -0.01171875 C11.80617187 -0.00785156 12.94828125 -0.00398438 14.125 0 C15.68927734 0.00507568 15.68927734 0.00507568 17.28515625 0.01025391 C20.44922505 0.45248926 21.8405059 1.12076253 24.0625 3.3984375 C24.5 6.9609375 24.5 6.9609375 24.0625 10.3984375 C18.99363716 13.77767939 13.01368586 12.72572673 7.0625 12.7109375 C5.76570312 12.72705078 4.46890625 12.74316406 3.1328125 12.75976562 C1.89273438 12.76041016 0.65265625 12.76105469 -0.625 12.76171875 C-2.33236328 12.76619019 -2.33236328 12.76619019 -4.07421875 12.77075195 C-6.9375 12.3984375 -6.9375 12.3984375 -8.8046875 11.06323242 C-10.5958909 8.43085829 -10.38755592 6.48453525 -9.9375 3.3984375 C-6.81234164 0.26130182 -4.32831955 0.0140443 0 0 Z " fill="#FECA5A" transform="translate(242.9375,272.6015625)"/>
<path d="M0 0 C1.28519531 -0.00386719 2.57039063 -0.00773437 3.89453125 -0.01171875 C4.56307129 -0.00543457 5.23161133 0.00084961 5.92041016 0.00732422 C7.9619433 0.02338396 10.00149708 0.00747079 12.04296875 -0.01171875 C13.32816406 -0.00785156 14.61335938 -0.00398438 15.9375 0 C17.11763672 0.00338379 18.29777344 0.00676758 19.51367188 0.01025391 C22.46875 0.3984375 22.46875 0.3984375 24.39257812 1.69677734 C26.21970389 4.58585779 25.17652058 7.21346989 24.46875 10.3984375 C21.85055892 13.01662858 14.49842925 11.62829863 10.74072266 11.63867188 C8.60930196 11.64836676 6.47884992 11.67937157 4.34765625 11.7109375 C2.99479741 11.7174685 1.64193165 11.72271859 0.2890625 11.7265625 C-1.56307861 11.74058105 -1.56307861 11.74058105 -3.45263672 11.75488281 C-6.53125 11.3984375 -6.53125 11.3984375 -8.43408203 10.03417969 C-10.01072605 7.68359782 -9.94640085 6.16610987 -9.53125 3.3984375 C-7.00688533 -0.29416423 -4.23993439 0.0121571 0 0 Z " fill="#FECA5A" transform="translate(32.53125,424.6015625)"/>
</svg>
